Coordinates
version=1
nRows=11
nColumns=40
inDegrees=yes

Units are S.I. units (second, meters, Newtons, ...)
Angles are in degrees.

endheader
time	pelvis_tilt	pelvis_list	pelvis_rotation	pelvis_tx	pelvis_ty	pelvis_tz	hip_flexion_r	hip_adduction_r	hip_rotation_r	knee_angle_r	knee_angle_r_beta	ankle_angle_r	subtalar_angle_r	mtp_angle_r	hip_flexion_l	hip_adduction_l	hip_rotation_l	knee_angle_l	knee_angle_l_beta	ankle_angle_l	subtalar_angle_l	mtp_angle_l	lumbar_extension	lumbar_bending	lumbar_rotation	arm_flex_r	arm_add_r	arm_rot_r	elbow_flex_r	pro_sup_r	wrist_flex_r	wrist_dev_r	arm_flex_l	arm_add_l	arm_rot_l	elbow_flex_l	pro_sup_l	wrist_flex_l	wrist_dev_l
     56.22500000	     -4.75299775	     -4.47951421	      2.95785706	      1.01637707	      0.92440525	      0.44951533	     -0.41058959	      4.66762748	    -18.44859323	      8.85492067	      8.85492067	     16.05751570	      6.89038296	     -1.76427154	     33.26964862	     -8.10465543	     -5.61422362	     20.11629580	     20.11629580	      7.89987399	     -5.76610780	     12.81428515	     -7.21114440	      7.67873313	      4.04189268	     39.83662017	    -16.54845850	     -6.69898711	    101.66560785	     44.10670934	      0.00000000	      0.00000000	    -10.38529651	     -7.99333718	      7.89589535	     25.03564398	     45.33812730	      0.00000000	      0.00000000
     56.23750000	     -4.73087146	     -4.39657073	      2.95568955	      1.01669176	      0.92281964	      0.44785276	     -0.95992969	      4.49996823	    -18.21052275	      8.95447059	      8.95447059	     16.66469461	      6.72216654	     -1.83639064	     33.08852122	     -7.80688650	     -5.44610821	     21.14274743	     21.14274743	      7.58653338	     -6.23007093	     12.46440478	     -7.12533722	      7.48032075	      3.95393062	     39.53546222	    -16.61195891	     -6.71265434	    102.05894381	     44.10150037	      0.00000000	      0.00000000	    -10.23000001	     -8.23147170	      7.90342647	     24.96318126	     45.34168406	      0.00000000	      0.00000000
     56.25000000	     -4.78450286	     -4.37535228	      2.93944625	      1.01721623	      0.92105524	      0.44608405	     -1.35676062	      4.39643378	    -17.64722278	      9.21062404	      9.21062404	     17.40891288	      5.97243653	     -1.37369418	     32.81955125	     -7.47393219	     -4.85824361	     22.04136310	     22.04136310	      6.53041535	     -7.32686118	     10.56586833	     -6.99681069	      7.37279850	      4.43212511	     38.41130726	    -17.32413458	     -6.99484243	    104.15988079	     44.09218561	      0.00000000	      0.00000000	     -9.59827910	     -8.43950246	      8.01502402	     24.68483820	     45.34795631	      0.00000000	      0.00000000
     56.26250000	     -4.72919587	     -4.30471072	      2.90838633	      1.01803926	      0.91949339	      0.44421641	     -1.95285712	      4.20129340	    -17.48953237	      9.36026634	      9.36026634	     17.96463164	      5.89529385	     -1.48314384	     32.44565948	     -7.19661553	     -4.51272244	     23.19532918	     23.19532918	      6.35344895	     -7.75810771	     10.22614193	     -6.88224885	      7.20174585	      4.25235509	     37.81198797	    -17.23179350	     -6.94632516	    104.20895459	     44.09284907	      0.00000000	      0.00000000	     -9.36259633	     -8.65683073	      8.00324123	     24.67751731	     45.35563987	      0.00000000	      0.00000000
     56.27500000	     -4.74995525	     -4.27071914	      2.88356870	      1.01882458	      0.91794210	      0.44213618	     -2.36510725	      4.01163513	    -17.15755211	      9.70643171	      9.70643171	     18.64204711	      5.54918429	     -1.00626014	     31.99540861	     -6.81609971	     -3.73555496	     23.98124332	     23.98124332	      5.41364196	     -8.93458575	      8.34781692	     -6.72429381	      7.11753934	      4.64232740	     36.47901737	    -17.76391094	     -7.33082818	    105.46228004	     44.12576902	      0.00000000	      0.00000000	     -8.60636993	     -8.79153996	      7.98560174	     24.46613289	     45.38776575	      0.00000000	      0.00000000
     56.28750000	     -4.69223382	     -4.18816482	      2.85897718	      1.01985922	      0.91678947	      0.43993240	     -2.93785183	      3.75773237	    -17.00604677	      9.92003525	      9.92003525	     19.05716641	      5.47076458	     -1.11307707	     31.49690633	     -6.51080421	     -3.37212461	     24.89778369	     24.89778369	      5.49965149	     -9.25492979	      8.08411502	     -6.61257363	      6.97614024	      4.36781346	     35.52453267	    -17.58550726	     -7.18584388	    105.28151578	     44.12694847	      0.00000000	      0.00000000	     -8.21821537	     -8.95194364	      7.95943597	     24.56180201	     45.39995613	      0.00000000	      0.00000000
     56.30000000	     -4.78690171	     -4.15030368	      2.83407377	      1.02070566	      0.91573526	      0.43756561	     -3.17602802	      3.48196658	    -16.81088583	     10.43361029	     10.43361029	     19.46763256	      5.25286997	     -1.10751814	     31.16586320	     -6.15133114	     -2.70724176	     25.63903000	     25.63903000	      5.43614801	    -10.12091003	      7.66304114	     -6.34389249	      6.90708270	      4.39774373	     34.13920934	    -17.82049095	     -7.18522146	    105.10640041	     44.14388550	      0.00000000	      0.00000000	     -7.61893087	     -9.06865598	      7.84332827	     24.72375905	     45.43408154	      0.00000000	      0.00000000
     56.31250000	     -4.79481116	     -4.01439638	      2.81058583	      1.02157578	      0.91533195	      0.43501955	     -3.46090137	      3.06396650	    -16.68657015	     11.04014434	     11.04014434	     19.79972188	      5.10073272	     -0.97311232	     30.61303882	     -5.71915919	     -2.21700045	     26.04924175	     26.04924175	      5.40671876	    -10.87395789	      7.04492955	     -6.23733849	      6.73278368	      4.48809164	     32.52512716	    -17.96921550	     -7.38736217	    105.01926465	     44.17709979	      0.00000000	      0.00000000	     -6.82002507	     -9.12513904	      7.61179758	     24.79557501	     45.49436177	      0.00000000	      0.00000000
     56.32500000	     -4.75819772	     -3.94717032	      2.84011851	      1.02240420	      0.91545725	      0.43235397	     -3.84525337	      2.73715550	    -16.62823877	     11.50109927	     11.50109927	     19.84039657	      4.98131903	     -1.01579725	     30.08116860	     -5.42832681	     -1.96273618	     26.45290301	     26.45290301	      5.78314151	    -11.08805074	      6.76937406	     -6.20455062	      6.68158862	      4.16551033	     31.01771481	    -17.70360627	     -7.18340346	    104.53885321	     44.18363187	      0.00000000	      0.00000000	     -6.16548775	     -9.19686272	      7.55370017	     25.01275397	     45.51659960	      0.00000000	      0.00000000
     56.33750000	     -4.90875682	     -3.75090849	      2.80957114	      1.02293296	      0.91586630	      0.42949108	     -3.64331140	      2.10927966	    -16.58918868	     12.67421334	     12.67421334	     19.86979948	      4.71628643	     -1.20043145	     29.62634781	     -4.97624457	     -1.74156467	     26.51373779	     26.51373779	      6.02596417	    -11.53280847	      6.49054209	     -5.97475801	      6.46628873	      4.32197738	     29.05791941	    -17.92177732	     -7.27527110	    103.37410296	     44.22807463	      0.00000000	      0.00000000	     -5.26228961	     -9.22129306	      7.33003913	     25.36588535	     45.57233345	      0.00000000	      0.00000000
     56.35000000	     -4.98957400	     -3.61192525	      2.78663628	      1.02341673	      0.91677825	      0.42654050	     -3.43883791	      1.51385874	    -16.57424898	     13.96640944	     13.96640944	     19.77649645	      4.45879131	     -1.50499642	     29.05752423	     -4.61200507	     -1.62441542	     26.42554761	     26.42554761	      6.36952456	    -11.86988092	      6.20330708	     -5.86912261	      6.36415177	      4.29834583	     27.14556455	    -17.87717542	     -7.39712599	    102.17459099	     44.27510878	      0.00000000	      0.00000000	     -4.30881679	     -9.20533388	      7.05777479	     25.73771512	     45.63617532	      0.00000000	      0.00000000
